<svg width="80" height="80" viewBox="0 0 80 80" fill="none" xmlns="http://www.w3.org/2000/svg">
<path d="M40 80C17.9405 80 0 62.0595 0 40C0 17.9405 17.9405 0 40 0C62.0595 0 80 17.9405 80 40C80 62.0595 62.0595 80 40 80ZM40 2.66754C19.4181 2.66754 2.66754 19.4181 2.66754 40C2.66754 60.5819 19.4181 77.3325 40 77.3325C60.5819 77.3325 77.3325 60.5819 77.3325 40C77.3325 19.4181 60.595 2.66754 40 2.66754Z" fill="white"/>
<path d="M63.6155 52.9323L48.6564 25.7862C48.421 25.3547 47.9764 25.0931 47.4926 25.0931C47.0088 25.0931 46.5642 25.3547 46.3288 25.7862L32.5204 50.8139L18.725 25.7862C18.372 25.1454 17.5613 24.9101 16.9075 25.2631C16.2667 25.6162 16.0314 26.4269 16.3844 27.0807L31.3566 54.2268C31.592 54.6583 32.0366 54.9199 32.5204 54.9199C33.0042 54.9199 33.4488 54.6583 33.6842 54.2268L47.4796 29.1991L54.5799 42.0791H43.8182C43.086 42.0791 42.4845 42.6806 42.4845 43.4128C42.4845 44.1451 43.086 44.7466 43.8182 44.7466H56.0444L61.2749 54.2138C61.5234 54.6583 61.9679 54.9068 62.4387 54.9068C62.661 54.9068 62.8833 54.8545 63.0794 54.7368C63.7463 54.3837 63.9817 53.573 63.6155 52.9323Z" fill="white"/>
</svg>
